<svg width="181" height="65" viewBox="0 0 181 65" fill="none" xmlns="http://www.w3.org/2000/svg">
<mask id="path-1-outside-1_1_1115" maskUnits="userSpaceOnUse" x="-0.169922" y="0.73938" width="85" height="65" fill="black">
<rect fill="white" x="-0.169922" y="0.73938" width="85" height="65"/>
<path d="M26.1859 17.6192C26.0478 17.8847 25.9846 18.1829 26.0031 18.4816C26.0216 18.7803 26.1211 19.0684 26.291 19.3148L41.064 40.6535C41.215 40.8716 41.4167 41.0498 41.6517 41.1729C41.8866 41.2959 42.148 41.3602 42.4132 41.3602C42.6785 41.3602 42.9398 41.2959 43.1748 41.1729C43.4098 41.0498 43.6114 40.8716 43.7625 40.6535L58.5355 19.3148C58.7071 19.0688 58.8078 18.7804 58.8268 18.4811C58.8458 18.1818 58.7822 17.883 58.643 17.6173C58.5038 17.3516 58.2944 17.1293 58.0375 16.9745C57.7806 16.8197 57.4861 16.7383 57.1862 16.7394L27.6402 16.7394C27.3406 16.7393 27.0467 16.8213 26.7903 16.9764C26.534 17.1315 26.325 17.3538 26.1859 17.6192ZM54.0527 20.0223L42.4132 36.8356L30.7738 20.0223H54.0527Z"/>
</mask>
<path d="M26.1859 17.6192L12.0126 10.1952L12.0019 10.2156L11.9913 10.236L26.1859 17.6192ZM26.291 19.3148L13.1163 28.3937L13.1261 28.408L13.1359 28.4222L26.291 19.3148ZM41.064 40.6535L27.9089 49.7609L27.912 49.7654L41.064 40.6535ZM43.7625 40.6535L56.9145 49.7654L56.9176 49.7609L43.7625 40.6535ZM58.5355 19.3148L45.4131 10.1604L45.3967 10.1839L45.3804 10.2075L58.5355 19.3148ZM57.1862 16.7394V32.7394H57.2142L57.2422 32.7393L57.1862 16.7394ZM27.6402 16.7394L27.6376 32.7394H27.6402V16.7394ZM54.0527 20.0223L67.2079 29.1294L84.589 4.02227L54.0527 4.02227V20.0223ZM42.4132 36.8356L29.258 45.9426L42.4132 64.9455L55.5685 45.9426L42.4132 36.8356ZM30.7738 20.0223V4.02227L0.237419 4.02227L17.6185 29.1294L30.7738 20.0223ZM11.9913 10.236C10.5123 13.0794 9.83555 16.2719 10.0337 19.471L41.9725 17.4922C42.1337 20.0938 41.5833 22.6901 40.3806 25.0024L11.9913 10.236ZM10.0337 19.471C10.2319 22.6699 11.2975 25.7545 13.1163 28.3937L39.4657 10.2359C40.9447 12.3822 41.8113 14.8907 41.9725 17.4922L10.0337 19.471ZM13.1359 28.4222L27.9089 49.7609L54.219 31.5462L39.4461 10.2075L13.1359 28.4222ZM27.912 49.7654C29.5355 52.1088 31.7029 54.0239 34.2283 55.3466L49.075 26.9991C51.1305 28.0757 52.8945 29.6343 54.216 31.5417L27.912 49.7654ZM34.2283 55.3466C36.7539 56.6693 39.5623 57.3602 42.4132 57.3602V25.3602C44.7336 25.3602 47.0194 25.9226 49.075 26.9991L34.2283 55.3466ZM42.4132 57.3602C45.2641 57.3602 48.0725 56.6693 50.5981 55.3466L35.7515 26.9991C37.807 25.9225 40.0929 25.3602 42.4132 25.3602V57.3602ZM50.5981 55.3466C53.1236 54.0239 55.2909 52.1088 56.9145 49.7654L30.6105 31.5417C31.9319 29.6344 33.6959 28.0757 35.7515 26.9991L50.5981 55.3466ZM56.9176 49.7609L71.6905 28.4222L45.3804 10.2075L30.6074 31.5462L56.9176 49.7609ZM71.6578 28.4692C73.5055 25.8207 74.5906 22.7157 74.7948 19.4928L42.8588 17.4695C43.0251 14.8452 43.9086 12.317 45.4131 10.1604L71.6578 28.4692ZM74.7948 19.4928C74.999 16.2699 74.3144 13.0528 72.8158 10.1922L44.4702 25.0424C43.2499 22.7132 42.6926 20.0937 42.8588 17.4695L74.7948 19.4928ZM72.8158 10.1922C71.3171 7.33161 69.0619 4.9374 66.296 3.27055L49.779 30.6784C47.5268 29.3212 45.6905 27.3717 44.4702 25.0424L72.8158 10.1922ZM66.296 3.27055C63.53 1.6037 60.3596 0.728189 57.1302 0.739488L57.2422 32.7393C54.6127 32.7485 52.0311 32.0356 49.779 30.6784L66.296 3.27055ZM57.1862 0.73939L27.6402 0.73939V32.7394H57.1862V0.73939ZM27.6429 0.73939C24.4227 0.738859 21.2637 1.61975 18.5085 3.28659L35.0722 30.6662C32.8297 32.0229 30.2586 32.7398 27.6376 32.7394L27.6429 0.73939ZM18.5085 3.28659C15.7532 4.95344 13.5067 7.34264 12.0126 10.1952L40.3593 25.0432C39.1432 27.3649 37.3148 29.3095 35.0722 30.6662L18.5085 3.28659ZM40.8974 10.9152L29.258 27.7285L55.5685 45.9426L67.2079 29.1294L40.8974 10.9152ZM55.5685 27.7285L43.929 10.9152L17.6185 29.1294L29.258 45.9426L55.5685 27.7285ZM30.7738 36.0223H54.0527V4.02227L30.7738 4.02227V36.0223Z" fill="#FF6464" mask="url(#path-1-outside-1_1_1115)"/>
<path d="M97.6781 39.8178C95.8861 39.5191 94.5741 38.7405 93.7421 37.4818C92.9314 36.2231 92.5261 34.7298 92.5261 33.0018C92.5261 31.7431 92.7287 30.4311 93.1341 29.0658C93.5394 27.6791 94.1154 26.3245 94.8621 25.0018C95.6301 23.6791 96.5474 22.4525 97.6141 21.3218C98.6807 20.1698 99.8861 19.1885 101.23 18.3778C102.574 17.5671 104.035 17.0018 105.614 16.6818C106.574 16.4898 107.491 16.3938 108.366 16.3938C110.073 16.3938 111.438 16.7351 112.462 17.4178C113.486 18.0791 113.998 18.9325 113.998 19.9778C113.998 20.1911 113.977 20.4045 113.934 20.6178C113.913 20.8098 113.849 21.0231 113.742 21.2578C113.507 21.8765 113.113 22.4311 112.558 22.9218C112.025 23.3911 111.406 23.7538 110.702 24.0098C110.019 24.2658 109.315 24.3725 108.59 24.3298C108.249 24.2871 107.95 24.1698 107.694 23.9778C107.459 23.7645 107.342 23.5085 107.342 23.2098C107.342 22.9111 107.47 22.5911 107.726 22.2498C107.961 22.3351 108.227 22.3778 108.526 22.3778C109.059 22.3778 109.582 22.2498 110.094 21.9938C110.606 21.7378 111.033 21.3858 111.374 20.9378C111.715 20.4898 111.886 19.9885 111.886 19.4338C111.886 18.6871 111.63 18.1965 111.118 17.9618C110.606 17.7058 110.03 17.5778 109.39 17.5778C108.963 17.5778 108.537 17.6205 108.11 17.7058C107.705 17.7698 107.374 17.8338 107.118 17.8978C105.902 18.2178 104.654 18.8045 103.374 19.6578C102.115 20.4898 100.963 21.5138 99.9181 22.7298C98.8727 23.9245 98.0621 25.2365 97.4861 26.6658C97.0594 27.7111 96.7287 28.7671 96.4941 29.8338C96.2594 30.9005 96.1421 31.9138 96.1421 32.8738C96.1421 34.1111 96.3447 35.1991 96.7501 36.1378C97.1767 37.0765 97.8487 37.7271 98.7661 38.0898C99.5981 38.4098 100.451 38.5698 101.326 38.5698C102.734 38.5698 104.153 38.2285 105.582 37.5458C107.033 36.8631 108.366 35.9991 109.582 34.9538C110.329 34.2925 111.001 33.6098 111.598 32.9058C112.195 32.2018 112.654 31.4551 112.974 30.6658C113.379 30.9218 113.582 31.2951 113.582 31.7858C113.582 32.1698 113.465 32.5858 113.23 33.0338C113.017 33.4818 112.761 33.8978 112.462 34.2818C112.185 34.6658 111.939 34.9645 111.726 35.1778C110.233 36.7351 108.441 37.9298 106.35 38.7618C104.281 39.5938 102.179 40.0098 100.046 40.0098C99.2354 40.0098 98.4461 39.9458 97.6781 39.8178ZM122.244 39.2418C121.519 39.2418 121.017 39.0285 120.74 38.6018C120.484 38.1538 120.356 37.6418 120.356 37.0658C120.356 36.4471 120.452 35.7325 120.644 34.9218C120.857 34.0898 121.113 33.2365 121.412 32.3618C121.732 31.4658 122.052 30.6338 122.372 29.8658C122.479 29.6098 122.575 29.3325 122.66 29.0338C122.767 28.7351 122.82 28.4685 122.82 28.2338C122.82 27.8071 122.628 27.5938 122.244 27.5938C122.095 27.5938 121.924 27.6258 121.732 27.6898C121.54 27.7325 121.316 27.8285 121.06 27.9778C120.612 28.1911 120.185 28.4898 119.78 28.8738C119.375 29.2365 119.097 29.5138 118.948 29.7058C118.671 30.0471 118.404 30.4311 118.148 30.8578C117.892 31.2631 117.668 31.6791 117.476 32.1058C117.049 33.0231 116.708 33.8978 116.452 34.7298C116.217 35.5405 115.993 36.2338 115.78 36.8098C115.652 37.1725 115.524 37.5458 115.396 37.9298C115.268 38.3138 115.151 38.6871 115.044 39.0498H111.94C111.94 39.0498 112.015 38.7831 112.164 38.2498C112.313 37.7165 112.495 37.1831 112.708 36.6498C113.689 34.1111 114.617 31.5191 115.492 28.8738C116.367 26.2285 117.423 23.6898 118.66 21.2578C119.215 20.1698 119.812 19.1671 120.452 18.2498C121.113 17.3325 121.807 16.6071 122.532 16.0738C123.279 15.5191 124.057 15.2418 124.868 15.2418C125.508 15.2418 125.945 15.3911 126.18 15.6898C126.436 15.9671 126.564 16.3191 126.564 16.7458C126.564 17.2151 126.468 17.7058 126.276 18.2178C126.084 18.7298 125.892 19.1671 125.7 19.5298C125.316 20.2978 124.815 21.1618 124.196 22.1218C123.577 23.0818 122.927 23.9778 122.244 24.8098C122.095 25.0018 121.839 25.3111 121.476 25.7378C121.113 26.1431 120.74 26.5591 120.356 26.9858C119.993 27.4125 119.705 27.7431 119.492 27.9778C120.196 27.4658 120.804 27.0711 121.316 26.7938C121.828 26.5165 122.265 26.3245 122.628 26.2178C123.247 26.0471 123.759 25.9618 124.164 25.9618C125.38 25.9618 125.988 26.4951 125.988 27.5618C125.988 28.0098 125.86 28.5431 125.604 29.1618C125.476 29.5031 125.295 29.9618 125.06 30.5378C124.825 31.1138 124.58 31.7325 124.324 32.3938C124.089 33.0338 123.887 33.6525 123.716 34.2498C123.567 34.8471 123.492 35.3378 123.492 35.7218C123.492 35.9565 123.524 36.1698 123.588 36.3618C123.673 36.5325 123.823 36.6178 124.036 36.6178C124.185 36.6178 124.399 36.5431 124.676 36.3938C125.273 36.0525 125.828 35.5725 126.34 34.9538C126.873 34.3351 127.343 33.6738 127.748 32.9698C128.175 32.2658 128.537 31.6258 128.836 31.0498C128.9 30.9005 128.975 30.8258 129.06 30.8258C129.167 30.8258 129.22 31.0071 129.22 31.3698C129.22 31.5405 129.199 31.7431 129.156 31.9778C129.113 32.1911 129.028 32.4045 128.9 32.6178C128.601 33.1298 128.207 33.7591 127.716 34.5058C127.247 35.2525 126.713 35.9885 126.116 36.7138C125.519 37.4178 124.889 38.0151 124.228 38.5058C123.567 38.9965 122.905 39.2418 122.244 39.2418ZM118.564 27.7538C119.631 26.4951 120.708 25.1511 121.796 23.7218C122.905 22.2711 123.823 20.7991 124.548 19.3058C124.591 19.1991 124.687 18.9858 124.836 18.6658C124.985 18.3458 125.124 17.9938 125.252 17.6098C125.38 17.2045 125.444 16.8631 125.444 16.5858C125.444 16.2231 125.305 16.0418 125.028 16.0418C124.751 16.0418 124.42 16.2338 124.036 16.6178C123.673 17.0018 123.3 17.5138 122.916 18.1538C122.425 18.9645 121.924 19.9031 121.412 20.9698C120.9 22.0151 120.399 23.1245 119.908 24.2978C119.439 25.4711 118.991 26.6231 118.564 27.7538ZM135.155 38.6018C134.174 39.1138 133.139 39.3698 132.051 39.3698C131.134 39.3698 130.281 39.1458 129.491 38.6978C128.702 38.2498 128.169 37.5351 127.891 36.5538C127.763 36.1058 127.699 35.6365 127.699 35.1458C127.699 34.3351 127.838 33.5031 128.115 32.6498C128.414 31.7751 128.798 30.9751 129.267 30.2498C129.993 29.1191 130.91 28.1805 132.019 27.4338C133.129 26.6871 134.355 26.3138 135.699 26.3138C136.702 26.3138 137.481 26.5698 138.035 27.0818C138.59 27.5938 138.867 28.1911 138.867 28.8738C138.867 29.6845 138.59 30.3991 138.035 31.0178C137.502 31.6151 136.798 32.0738 135.923 32.3938C135.497 32.5431 135.038 32.6605 134.547 32.7458C134.078 32.8098 133.63 32.8418 133.203 32.8418C132.329 32.8418 131.657 32.7245 131.187 32.4898C130.782 33.5351 130.579 34.4951 130.579 35.3698C130.579 36.1591 130.761 36.8098 131.123 37.3218C131.486 37.8125 132.062 38.0578 132.851 38.0578C133.513 38.0578 134.163 37.8765 134.803 37.5138C135.465 37.1511 136.073 36.7031 136.627 36.1698C137.203 35.6365 137.683 35.1245 138.067 34.6338C138.366 34.2711 138.622 33.9298 138.835 33.6098C139.049 33.2898 139.273 32.9271 139.507 32.5218C139.742 32.0951 140.019 31.5725 140.339 30.9538C140.425 30.8045 140.499 30.7298 140.563 30.7298C140.691 30.7298 140.755 30.9005 140.755 31.2418C140.755 31.4338 140.723 31.6471 140.659 31.8818C140.617 32.0951 140.531 32.3191 140.403 32.5538C140.105 33.0871 139.742 33.6738 139.315 34.3138C138.91 34.9325 138.494 35.5298 138.067 36.1058C137.683 36.6178 137.246 37.0871 136.755 37.5138C136.265 37.9405 135.731 38.3031 135.155 38.6018ZM132.243 31.7858C132.35 31.8498 132.467 31.8925 132.595 31.9138C132.723 31.9351 132.851 31.9458 132.979 31.9458C133.406 31.9458 133.833 31.8498 134.259 31.6578C134.686 31.4445 135.049 31.2311 135.347 31.0178C135.838 30.6765 136.254 30.2711 136.595 29.8018C136.937 29.3325 137.129 28.7991 137.171 28.2018C137.193 27.9458 137.129 27.7325 136.979 27.5618C136.851 27.3698 136.617 27.2738 136.275 27.2738C136.105 27.2738 135.891 27.3058 135.635 27.3698C135.294 27.4551 134.953 27.6151 134.611 27.8498C134.27 28.0845 133.939 28.3618 133.619 28.6818C133.513 28.7885 133.321 29.0018 133.043 29.3218C132.787 29.6205 132.542 29.9618 132.307 30.3458C132.073 30.7085 131.955 31.0285 131.955 31.3058C131.955 31.5405 132.051 31.7005 132.243 31.7858ZM143.328 39.3698C142.325 39.3698 141.515 39.1885 140.896 38.8258C140.277 38.4418 139.829 37.9405 139.552 37.3218C139.296 36.6818 139.168 35.9991 139.168 35.2738C139.168 34.5485 139.275 33.8125 139.488 33.0658C139.701 32.3191 139.989 31.6151 140.352 30.9538C141.099 29.6098 142.016 28.5005 143.104 27.6258C144.213 26.7511 145.568 26.3138 147.168 26.3138C148.171 26.3138 148.949 26.5698 149.504 27.0818C150.059 27.5938 150.336 28.1911 150.336 28.8738C150.336 29.5138 150.144 30.1005 149.76 30.6338C149.397 31.1671 148.907 31.4338 148.288 31.4338C147.947 31.4338 147.648 31.3378 147.392 31.1458C147.136 30.9538 147.008 30.6551 147.008 30.2498C147.008 30.1858 147.008 30.1218 147.008 30.0578C147.029 29.9725 147.051 29.8871 147.072 29.8018C147.2 29.7805 147.381 29.7485 147.616 29.7058C147.872 29.6418 148.075 29.4925 148.224 29.2578C148.501 28.8738 148.64 28.4898 148.64 28.1058C148.64 27.8711 148.565 27.6791 148.416 27.5298C148.288 27.3591 148.064 27.2738 147.744 27.2738C147.168 27.2738 146.581 27.4871 145.984 27.9138C145.387 28.3191 144.821 28.8631 144.288 29.5458C143.776 30.2285 143.328 30.9751 142.944 31.7858C142.347 33.0871 142.048 34.2818 142.048 35.3698C142.048 36.1591 142.229 36.8098 142.592 37.3218C142.955 37.8125 143.531 38.0578 144.32 38.0578C145.323 38.0578 146.261 37.7165 147.136 37.0338C148.032 36.3298 148.832 35.5191 149.536 34.6018C150.005 34.0045 150.421 33.3965 150.784 32.7778C151.168 32.1591 151.488 31.5938 151.744 31.0818C151.829 30.9325 151.904 30.8578 151.968 30.8578C152.096 30.8578 152.16 31.0391 152.16 31.4018C152.16 31.5725 152.128 31.7751 152.064 32.0098C152.021 32.2231 151.947 32.4258 151.84 32.6178C151.477 33.2151 151.104 33.8125 150.72 34.4098C150.357 35.0071 149.963 35.5725 149.536 36.1058C148.811 37.0445 147.957 37.8231 146.976 38.4418C145.995 39.0605 144.779 39.3698 143.328 39.3698ZM159.213 39.2418C158.487 39.2418 157.986 39.0285 157.709 38.6018C157.453 38.1538 157.325 37.6418 157.325 37.0658C157.325 36.4471 157.421 35.7325 157.613 34.9218C157.826 34.0898 158.082 33.2365 158.381 32.3618C158.701 31.4658 159.021 30.6338 159.341 29.8658C159.447 29.6098 159.543 29.3325 159.629 29.0338C159.735 28.7351 159.789 28.4685 159.789 28.2338C159.789 27.8071 159.597 27.5938 159.213 27.5938C159.063 27.5938 158.893 27.6258 158.701 27.6898C158.509 27.7325 158.285 27.8285 158.029 27.9778C157.581 28.1911 157.154 28.4898 156.749 28.8738C156.343 29.2365 156.066 29.5138 155.917 29.7058C155.639 30.0471 155.373 30.4311 155.117 30.8578C154.861 31.2631 154.637 31.6791 154.445 32.1058C154.018 33.0231 153.677 33.8978 153.421 34.7298C153.186 35.5405 152.962 36.2338 152.749 36.8098C152.621 37.1725 152.493 37.5458 152.365 37.9298C152.237 38.3138 152.119 38.6871 152.013 39.0498H148.909C148.909 39.0498 148.983 38.7831 149.133 38.2498C149.282 37.7165 149.463 37.1831 149.677 36.6498C150.658 34.1111 151.586 31.5191 152.461 28.8738C153.335 26.2285 154.391 23.6898 155.629 21.2578C156.183 20.1698 156.781 19.1671 157.421 18.2498C158.082 17.3325 158.775 16.6071 159.501 16.0738C160.247 15.5191 161.026 15.2418 161.837 15.2418C162.477 15.2418 162.914 15.3911 163.149 15.6898C163.405 15.9671 163.533 16.3191 163.533 16.7458C163.533 17.2151 163.437 17.7058 163.245 18.2178C163.053 18.7298 162.861 19.1671 162.669 19.5298C162.285 20.2978 161.783 21.1618 161.165 22.1218C160.546 23.0818 159.895 23.9778 159.213 24.8098C159.063 25.0018 158.807 25.3111 158.445 25.7378C158.082 26.1431 157.709 26.5591 157.325 26.9858C156.962 27.4125 156.674 27.7431 156.461 27.9778C157.165 27.4658 157.773 27.0711 158.285 26.7938C158.797 26.5165 159.234 26.3245 159.597 26.2178C160.215 26.0471 160.727 25.9618 161.133 25.9618C162.349 25.9618 162.957 26.4951 162.957 27.5618C162.957 28.0098 162.829 28.5431 162.573 29.1618C162.445 29.5031 162.263 29.9618 162.029 30.5378C161.794 31.1138 161.549 31.7325 161.293 32.3938C161.058 33.0338 160.855 33.6525 160.685 34.2498C160.535 34.8471 160.461 35.3378 160.461 35.7218C160.461 35.9565 160.493 36.1698 160.557 36.3618C160.642 36.5325 160.791 36.6178 161.005 36.6178C161.154 36.6178 161.367 36.5431 161.645 36.3938C162.242 36.0525 162.797 35.5725 163.309 34.9538C163.842 34.3351 164.311 33.6738 164.717 32.9698C165.143 32.2658 165.506 31.6258 165.805 31.0498C165.869 30.9005 165.943 30.8258 166.029 30.8258C166.135 30.8258 166.189 31.0071 166.189 31.3698C166.189 31.5405 166.167 31.7431 166.125 31.9778C166.082 32.1911 165.997 32.4045 165.869 32.6178C165.57 33.1298 165.175 33.7591 164.685 34.5058C164.215 35.2525 163.682 35.9885 163.085 36.7138C162.487 37.4178 161.858 38.0151 161.197 38.5058C160.535 38.9965 159.874 39.2418 159.213 39.2418ZM155.533 27.7538C156.599 26.4951 157.677 25.1511 158.765 23.7218C159.874 22.2711 160.791 20.7991 161.517 19.3058C161.559 19.1991 161.655 18.9858 161.805 18.6658C161.954 18.3458 162.093 17.9938 162.221 17.6098C162.349 17.2045 162.413 16.8631 162.413 16.5858C162.413 16.2231 162.274 16.0418 161.997 16.0418C161.719 16.0418 161.389 16.2338 161.005 16.6178C160.642 17.0018 160.269 17.5138 159.885 18.1538C159.394 18.9645 158.893 19.9031 158.381 20.9698C157.869 22.0151 157.367 23.1245 156.877 24.2978C156.407 25.4711 155.959 26.6231 155.533 27.7538ZM168.316 39.3058C167.335 39.3058 166.481 38.9965 165.756 38.3778C165.052 37.7591 164.7 36.7671 164.7 35.4018C164.7 34.3991 164.881 33.3538 165.244 32.2658C165.607 31.1778 166.119 30.1645 166.78 29.2258C167.463 28.2871 168.284 27.5191 169.244 26.9218C170.204 26.3245 171.281 26.0258 172.476 26.0258C173.457 26.0258 174.215 26.2178 174.748 26.6018C175.303 26.9645 175.697 27.4551 175.932 28.0738C176.167 28.6925 176.284 29.3538 176.284 30.0578C176.284 30.5911 176.22 31.1351 176.092 31.6898C175.985 32.2231 175.825 32.7565 175.612 33.2898C175.975 33.7165 176.433 33.9298 176.988 33.9298C177.585 33.9298 178.14 33.7058 178.652 33.2578C178.951 33.0018 179.217 32.6818 179.452 32.2978C179.708 31.8925 179.932 31.5191 180.124 31.1778C180.188 31.0498 180.263 30.9858 180.348 30.9858C180.455 30.9858 180.508 31.1351 180.508 31.4338C180.508 31.6258 180.476 31.8498 180.412 32.1058C180.369 32.3618 180.263 32.6178 180.092 32.8738C179.772 33.4285 179.441 33.8551 179.1 34.1538C178.759 34.4311 178.375 34.6551 177.948 34.8258C177.628 34.9538 177.287 35.0178 176.924 35.0178C176.263 35.0178 175.665 34.8151 175.132 34.4098C174.961 34.7725 174.748 35.1458 174.492 35.5298C173.873 36.5751 173.073 37.4711 172.092 38.2178C171.111 38.9431 169.852 39.3058 168.316 39.3058ZM169.532 38.0898C170.023 38.0898 170.492 37.9298 170.94 37.6098C171.409 37.2685 171.836 36.8525 172.22 36.3618C172.604 35.8711 172.935 35.3591 173.212 34.8258C173.511 34.2925 173.756 33.8231 173.948 33.4178C173.223 32.7991 172.86 32.0205 172.86 31.0818C172.86 30.4631 173.031 29.9831 173.372 29.6418C173.713 29.3005 174.183 29.1511 174.78 29.1938C174.759 28.7031 174.631 28.2978 174.396 27.9778C174.161 27.6578 173.777 27.4978 173.244 27.4978C172.753 27.4978 172.284 27.6471 171.836 27.9458C171.409 28.2445 171.004 28.6285 170.62 29.0978C170.257 29.5458 169.927 30.0151 169.628 30.5058C169.351 30.9751 169.116 31.4018 168.924 31.7858C168.647 32.3405 168.391 33.0125 168.156 33.8018C167.921 34.5911 167.804 35.3271 167.804 36.0098C167.804 36.6071 167.921 37.1085 168.156 37.5138C168.412 37.8978 168.871 38.0898 169.532 38.0898Z" fill="black"/>
</svg>
